<svg fill="#ffffff" height="200px" width="200px" version="1.1" id="Layer_1" xmlns="http://www.w3.org/2000/svg" xmlns:xlink="http://www.w3.org/1999/xlink" viewBox="0 0 512 512" xml:space="preserve"><g id="SVGRepo_bgCarrier" stroke-width="0"></g><g id="SVGRepo_tracerCarrier" stroke-linecap="round" stroke-linejoin="round"></g><g id="SVGRepo_iconCarrier"> <g> <g> <g> <path d="M385.268,121.919l-210.569,129.69c-11.916,7.356-17.555,21.885-13.716,35.323l22.768,80 c1.945,6.821,8.015,11.355,14.999,11.355c0.389,0,0.782-0.014,1.176-0.043c7.466-0.542,13.374-6.103,14.367-13.515l5.92-43.866 c0.798-5.902,3.642-11.392,8.001-15.45l173.765-161.524c5.251-4.869,5.945-12.842,1.618-18.545 C399.263,119.636,391.388,118.16,385.268,121.919z M214.32,290.478c-7.808,7.268-12.895,17.089-14.323,27.655l-2.871,21.278 l-16.527-58.072c-1.343-4.704,0.635-9.791,4.805-12.365l154.258-95.007L214.32,290.478z"></path> <path d="M503.67,37.382c-6.579-5.576-15.657-7.111-23.698-4.005L15.08,212.719C5.873,216.27-0.047,224.939,0,234.804 c0.048,9.874,6.055,18.495,15.316,21.965l108.59,40.529l42.359,136.225c2.326,7.489,8.197,13.308,15.703,15.566 c7.502,2.256,15.604,0.643,21.66-4.31l63.14-51.473c3.032-2.472,7.362-2.594,10.528-0.295l113.883,82.681 c4.097,2.978,8.932,4.511,13.823,4.511c2.865,0,5.749-0.526,8.517-1.596c7.486-2.895,12.93-9.312,14.56-17.163l83.429-401.309 C513.26,51.685,510.257,42.967,503.67,37.382z M491.536,55.99l-83.428,401.308c-0.302,1.45-1.346,2.053-1.942,2.284 c-0.6,0.232-1.785,0.489-2.997-0.393l-113.887-82.685c-5.091-3.696-11.077-5.531-17.052-5.531 c-6.518,0-13.027,2.185-18.347,6.519l-63.154,51.485c-1.124,0.92-2.291,0.756-2.885,0.577c-0.598-0.18-1.665-0.69-2.099-2.086 l-43.845-141.006c-0.937-3.013-3.217-5.423-6.173-6.527L22.462,237.662c-1.696-0.635-2.057-1.958-2.062-2.957 c-0.005-0.99,0.343-2.307,2.023-2.955L487.316,52.409c0.002-0.001,0.005-0.002,0.008-0.003c1.51-0.583,2.627,0.087,3.159,0.537 C491.017,53.398,491.867,54.398,491.536,55.99z"></path> </g> </g> </g> <g> <g> <path d="M427.481,252.142c-5.506-1.196-10.936,2.299-12.131,7.804l-1.55,7.14c-1.195,5.505,2.299,10.936,7.804,12.131 c0.729,0.158,1.456,0.234,2.174,0.234c4.695,0,8.92-3.262,9.958-8.037l1.55-7.14C436.48,258.769,432.985,253.338,427.481,252.142z "></path> </g> </g> <g> <g> <path d="M417.281,299.122c-5.512-1.195-10.938,2.299-12.132,7.804l-23.459,108.051c-1.195,5.505,2.299,10.936,7.803,12.131 c0.73,0.158,1.457,0.234,2.174,0.234c4.696,0,8.92-3.262,9.958-8.037l23.459-108.052 C426.279,305.748,422.785,300.317,417.281,299.122z"></path> </g> </g> </g></svg>